<svg width="1100" height="1100" viewBox="0 0 1100 1100" fill="none" xmlns="http://www.w3.org/2000/svg">
<rect width="1100" height="1100" rx="50" fill="#09090B"/>
<rect x="50" y="50" width="81.25" height="81.25" rx="10" fill="#10B981"/>
<rect x="181.25" y="50" width="81.25" height="81.25" rx="10" fill="#10B981"/>
<rect x="332.812" y="70.3125" width="40.625" height="40.625" rx="10" fill="#10B981"/>
<rect x="464.062" y="70.3125" width="40.625" height="40.625" rx="10" fill="#10B981"/>
<rect x="595.312" y="70.3125" width="40.625" height="40.625" rx="10" fill="#10B981"/>
<rect x="726.562" y="70.3125" width="40.625" height="40.625" rx="10" fill="#10B981"/>
<rect x="837.5" y="50" width="81.25" height="81.25" rx="10" fill="#10B981"/>
<rect x="968.75" y="50" width="81.25" height="81.25" rx="10" fill="#10B981"/>
<rect x="50" y="181.25" width="81.25" height="81.25" rx="10" fill="#10B981"/>
<rect x="181.25" y="181.25" width="81.25" height="81.25" rx="10" fill="#10B981"/>
<rect x="332.812" y="201.562" width="40.625" height="40.625" rx="10" fill="#10B981"/>
<rect x="464.062" y="201.562" width="40.625" height="40.625" rx="10" fill="#10B981"/>
<rect x="595.312" y="201.562" width="40.625" height="40.625" rx="10" fill="#10B981"/>
<rect x="726.562" y="201.562" width="40.625" height="40.625" rx="10" fill="#10B981"/>
<rect x="837.5" y="181.25" width="81.25" height="81.25" rx="10" fill="#10B981"/>
<rect x="968.75" y="181.25" width="81.25" height="81.25" rx="10" fill="#10B981"/>
<rect x="50" y="312.5" width="81.25" height="81.25" rx="10" fill="#10B981"/>
<rect x="181.25" y="312.5" width="81.25" height="81.25" rx="10" fill="#10B981"/>
<rect x="312.5" y="312.5" width="81.25" height="81.25" rx="10" fill="#10B981"/>
<rect x="464.062" y="332.812" width="40.625" height="40.625" rx="10" fill="#10B981"/>
<rect x="595.312" y="332.812" width="40.625" height="40.625" rx="10" fill="#10B981"/>
<rect x="706.25" y="312.5" width="81.25" height="81.25" rx="10" fill="#10B981"/>
<rect x="837.5" y="312.5" width="81.25" height="81.25" rx="10" fill="#10B981"/>
<rect x="968.75" y="312.5" width="81.25" height="81.25" rx="10" fill="#10B981"/>
<rect x="70.3125" y="464.062" width="40.625" height="40.625" rx="10" fill="#10B981"/>
<rect x="181.25" y="443.75" width="81.25" height="81.25" rx="10" fill="#10B981"/>
<rect x="312.5" y="443.75" width="81.25" height="81.25" rx="10" fill="#10B981"/>
<rect x="464.062" y="464.062" width="40.625" height="40.625" rx="10" fill="#10B981"/>
<rect x="595.312" y="464.062" width="40.625" height="40.625" rx="10" fill="#10B981"/>
<rect x="706.25" y="443.75" width="81.25" height="81.25" rx="10" fill="#10B981"/>
<rect x="837.5" y="443.75" width="81.25" height="81.25" rx="10" fill="#10B981"/>
<rect x="989.062" y="464.062" width="40.625" height="40.625" rx="10" fill="#10B981"/>
<rect x="70.3125" y="595.312" width="40.625" height="40.625" rx="10" fill="#10B981"/>
<rect x="181.25" y="575" width="81.25" height="81.25" rx="10" fill="#10B981"/>
<rect x="312.5" y="575" width="81.25" height="81.25" rx="10" fill="#10B981"/>
<rect x="464.062" y="595.312" width="40.625" height="40.625" rx="10" fill="#10B981"/>
<rect x="595.312" y="595.312" width="40.625" height="40.625" rx="10" fill="#10B981"/>
<rect x="706.25" y="575" width="81.25" height="81.25" rx="10" fill="#10B981"/>
<rect x="837.5" y="575" width="81.25" height="81.25" rx="10" fill="#10B981"/>
<rect x="989.062" y="595.312" width="40.625" height="40.625" rx="10" fill="#10B981"/>
<rect x="70.3125" y="726.562" width="40.625" height="40.625" rx="10" fill="#10B981"/>
<rect x="201.562" y="726.562" width="40.625" height="40.625" rx="10" fill="#10B981"/>
<rect x="312.5" y="706.25" width="81.25" height="81.25" rx="10" fill="#10B981"/>
<rect x="443.75" y="706.25" width="81.25" height="81.25" rx="10" fill="#10B981"/>
<rect x="575" y="706.25" width="81.25" height="81.25" rx="10" fill="#10B981"/>
<rect x="706.25" y="706.25" width="81.25" height="81.25" rx="10" fill="#10B981"/>
<rect x="857.812" y="726.562" width="40.625" height="40.625" rx="10" fill="#10B981"/>
<rect x="989.062" y="726.562" width="40.625" height="40.625" rx="10" fill="#10B981"/>
<rect x="70.3125" y="857.812" width="40.625" height="40.625" rx="10" fill="#10B981"/>
<rect x="201.562" y="857.812" width="40.625" height="40.625" rx="10" fill="#10B981"/>
<rect x="312.5" y="837.5" width="81.25" height="81.25" rx="10" fill="#10B981"/>
<rect x="443.75" y="837.5" width="81.25" height="81.25" rx="10" fill="#10B981"/>
<rect x="575" y="837.5" width="81.25" height="81.25" rx="10" fill="#10B981"/>
<rect x="706.25" y="837.5" width="81.25" height="81.25" rx="10" fill="#10B981"/>
<rect x="857.812" y="857.812" width="40.625" height="40.625" rx="10" fill="#10B981"/>
<rect x="989.062" y="857.812" width="40.625" height="40.625" rx="10" fill="#10B981"/>
<rect x="70.3125" y="989.062" width="40.625" height="40.625" rx="10" fill="#10B981"/>
<rect x="201.562" y="989.062" width="40.625" height="40.625" rx="10" fill="#10B981"/>
<rect x="332.812" y="989.062" width="40.625" height="40.625" rx="10" fill="#10B981"/>
<rect x="443.75" y="968.75" width="81.25" height="81.25" rx="10" fill="#10B981"/>
<rect x="575" y="968.75" width="81.25" height="81.25" rx="10" fill="#10B981"/>
<rect x="726.562" y="989.062" width="40.625" height="40.625" rx="10" fill="#10B981"/>
<rect x="857.812" y="989.062" width="40.625" height="40.625" rx="10" fill="#10B981"/>
<rect x="989.062" y="989.062" width="40.625" height="40.625" rx="10" fill="#10B981"/>
</svg>
